<?xml version="1.0" encoding="UTF-8" standalone="no"?>
<svg
   xmlns:dc="http://purl.org/dc/elements/1.1/"
   xmlns:cc="http://creativecommons.org/ns#"
   xmlns:rdf="http://www.w3.org/1999/02/22-rdf-syntax-ns#"
   xmlns:svg="http://www.w3.org/2000/svg"
   xmlns="http://www.w3.org/2000/svg"
   viewBox="0 0 800 533.33331"
   height="533.33331"
   width="800"
   xml:space="preserve"
   version="1.1"
   id="svg2"><metadata
     id="metadata8"><rdf:RDF><cc:Work
         rdf:about=""><dc:format>image/svg+xml</dc:format><dc:type
           rdf:resource="http://purl.org/dc/dcmitype/StillImage" /></cc:Work></rdf:RDF></metadata><defs
     id="defs6"><clipPath
       id="clipPath22"
       clipPathUnits="userSpaceOnUse"><path
         id="path24"
         d="M 0,400 600,400 600,0 0,0 0,400 Z" /></clipPath></defs><g
     transform="matrix(1.3333333,0,0,-1.3333333,0,533.33333)"
     id="g10"><path
       id="path12"
       style="fill:#209ac4;fill-opacity:1;fill-rule:nonzero;stroke:none"
       d="M 0,0 600,0 600,400 0,400 0,0 Z" /><path
       id="path14"
       style="fill:#e01f3d;fill-opacity:1;fill-rule:nonzero;stroke:none"
       d="m 0,133.334 600,0 0,133.333 -600,0 0,-133.333 z" /><path
       id="path16"
       style="fill:#2fac6a;fill-opacity:1;fill-rule:nonzero;stroke:none"
       d="m 0,0 600,0 0,133.334 -600,0 L 0,0 Z" /><g
       id="g18"><g
         clip-path="url(#clipPath22)"
         id="g20"><g
           transform="translate(288.3335,260)"
           id="g26"><path
             id="path28"
             style="fill:#ffffff;fill-opacity:1;fill-rule:nonzero;stroke:none"
             d="m 0,0 c 33.137,0 60,-26.863 60,-60 0,-33.138 -26.863,-60 -60,-60 -33.137,0 -60,26.862 -60,60 0,33.137 26.863,60 60,60" /></g><g
           transform="translate(301,250)"
           id="g30"><path
             id="path32"
             style="fill:#e01f3d;fill-opacity:1;fill-rule:nonzero;stroke:none"
             d="m 0,0 c 27.615,0 50,-22.386 50,-50 0,-27.614 -22.385,-50 -50,-50 -27.615,0 -50,22.386 -50,50 0,27.614 22.385,50 50,50" /></g><g
           transform="translate(378.5869,176.4473)"
           id="g34"><path
             id="path36"
             style="fill:#ffffff;fill-opacity:1;fill-rule:nonzero;stroke:none"
             d="m 0,0 -17.198,8.16 -6.365,-17.941 -6.391,17.931 -17.186,-8.184 8.161,17.198 -17.942,6.365 17.932,6.391 -8.185,17.186 17.198,-8.16 6.366,17.94 6.39,-17.931 L -0.034,47.14 -8.194,29.942 9.747,23.576 -8.185,17.186 0,0 Z" /></g></g></g></g></svg>