<?xml version="1.0" encoding="UTF-8" standalone="no"?>
<svg
   xmlns:dc="http://purl.org/dc/elements/1.1/"
   xmlns:cc="http://creativecommons.org/ns#"
   xmlns:rdf="http://www.w3.org/1999/02/22-rdf-syntax-ns#"
   xmlns:svg="http://www.w3.org/2000/svg"
   xmlns="http://www.w3.org/2000/svg"
   viewBox="0 0 800 533.33331"
   height="533.33331"
   width="800"
   xml:space="preserve"
   version="1.1"
   id="svg2"><metadata
     id="metadata8"><rdf:RDF><cc:Work
         rdf:about=""><dc:format>image/svg+xml</dc:format><dc:type
           rdf:resource="http://purl.org/dc/dcmitype/StillImage" /></cc:Work></rdf:RDF></metadata><defs
     id="defs6" /><g
     transform="matrix(1.3333333,0,0,-1.3333333,0,533.33333)"
     id="g10"><path
       id="path12"
       style="fill:#df3626;fill-opacity:1;fill-rule:nonzero;stroke:none"
       d="M 0,0 600,0 600,400 0,400 0,0 Z" /><g
       transform="translate(100.0859,360.2568)"
       id="g14"><path
         id="path16"
         style="fill:#ffde20;fill-opacity:1;fill-rule:nonzero;stroke:none"
         d="m 0,0 35.297,-108.619 -92.409,67.13 114.224,0 -92.41,-67.13 L 0,0 Z" /></g><g
       transform="translate(208.0054,378.6743)"
       id="g18"><path
         id="path20"
         style="fill:#ffde20;fill-opacity:1;fill-rule:nonzero;stroke:none"
         d="M 0,0 -3.343,-37.922 -22.931,-5.277 12.106,-20.175 -24.997,-28.716 0,0 Z" /></g><g
       transform="translate(254.5742,334.1641)"
       id="g22"><path
         id="path24"
         style="fill:#ffde20;fill-opacity:1;fill-rule:nonzero;stroke:none"
         d="M 0,0 -17.798,-33.654 -23.184,4.032 3.328,-23.292 -34.184,-16.767 0,0 Z" /></g><g
       transform="translate(259.0098,267.0479)"
       id="g26"><path
         id="path28"
         style="fill:#ffde20;fill-opacity:1;fill-rule:nonzero;stroke:none"
         d="M 0,0 -29.98,-23.467 -19.52,13.139 -6.464,-22.623 -38.05,-1.364 0,0 Z" /></g><g
       transform="translate(207.2344,238.8833)"
       id="g30"><path
         id="path32"
         style="fill:#ffde20;fill-opacity:1;fill-rule:nonzero;stroke:none"
         d="M 0,0 -1.766,-38.028 -22.693,-6.224 12.934,-19.655 -23.785,-29.727 0,0 Z" /></g></g></svg>