<?xml version="1.0" encoding="UTF-8" standalone="no"?>
<svg
   xmlns:dc="http://purl.org/dc/elements/1.1/"
   xmlns:cc="http://creativecommons.org/ns#"
   xmlns:rdf="http://www.w3.org/1999/02/22-rdf-syntax-ns#"
   xmlns:svg="http://www.w3.org/2000/svg"
   xmlns="http://www.w3.org/2000/svg"
   viewBox="0 0 800 533.33331"
   height="533.33331"
   width="800"
   xml:space="preserve"
   version="1.1"
   id="svg2"><metadata
     id="metadata8"><rdf:RDF><cc:Work
         rdf:about=""><dc:format>image/svg+xml</dc:format><dc:type
           rdf:resource="http://purl.org/dc/dcmitype/StillImage" /></cc:Work></rdf:RDF></metadata><defs
     id="defs6"><clipPath
       id="clipPath20"
       clipPathUnits="userSpaceOnUse"><path
         id="path22"
         d="M 0,400 600,400 600,0 0,0 0,400 Z" /></clipPath></defs><g
     transform="matrix(1.3333333,0,0,-1.3333333,0,533.33333)"
     id="g10"><path
       id="path12"
       style="fill:#e73843;fill-opacity:1;fill-rule:nonzero;stroke:none"
       d="m 0,200 600,0 0,200 -600,0 0,-200 z" /><path
       id="path14"
       style="fill:#ffffff;fill-opacity:1;fill-rule:nonzero;stroke:none"
       d="M 0,0 600,0 600,200 0,200 0,0 Z" /><g
       id="g16"><g
         clip-path="url(#clipPath20)"
         id="g18"><g
           transform="translate(205.7886,300)"
           id="g24"><path
             id="path26"
             style="fill:#ffffff;fill-opacity:1;fill-rule:nonzero;stroke:none"
             d="m 0,0 c 0,-41.537 -33.672,-75.208 -75.208,-75.208 -41.537,0 -75.209,33.671 -75.209,75.208 0,41.537 33.672,75.208 75.209,75.208 C -33.672,75.208 0,41.537 0,0" /></g><g
           transform="translate(229.4214,300)"
           id="g28"><path
             id="path30"
             style="fill:#e73843;fill-opacity:1;fill-rule:nonzero;stroke:none"
             d="m 0,0 c 0,-39.253 -31.821,-71.075 -71.074,-71.075 -39.253,0 -71.074,31.822 -71.074,71.075 0,39.253 31.821,71.074 71.074,71.074 C -31.821,71.074 0,39.253 0,0" /></g><g
           transform="translate(139.8882,298.1851)"
           id="g32"><path
             id="path34"
             style="fill:#ffffff;fill-opacity:1;fill-rule:nonzero;stroke:none"
             d="m 0,0 -10.217,7.838 -10.214,-7.841 3.932,12.638 -10.249,7.79 12.647,-0.027 3.88,12.657 L -6.337,20.4 6.31,20.431 -3.937,12.637 0,0 Z" /></g><g
           transform="translate(220.0532,298.1851)"
           id="g36"><path
             id="path38"
             style="fill:#ffffff;fill-opacity:1;fill-rule:nonzero;stroke:none"
             d="m 0,0 -10.216,7.838 -10.215,-7.841 3.932,12.638 -10.249,7.79 12.647,-0.027 3.88,12.657 L -6.337,20.4 6.311,20.431 -3.937,12.637 0,0 Z" /></g><g
           transform="translate(180.0117,327.937)"
           id="g40"><path
             id="path42"
             style="fill:#ffffff;fill-opacity:1;fill-rule:nonzero;stroke:none"
             d="m 0,0 -10.217,7.837 -10.214,-7.841 3.932,12.638 -10.249,7.791 12.647,-0.027 3.88,12.656 L -6.337,20.399 6.31,20.431 -3.937,12.637 0,0 Z" /></g><g
           transform="translate(154.8882,250.5815)"
           id="g44"><path
             id="path46"
             style="fill:#ffffff;fill-opacity:1;fill-rule:nonzero;stroke:none"
             d="m 0,0 -10.217,7.837 -10.214,-7.841 3.932,12.638 -10.249,7.79 12.647,-0.026 3.88,12.656 L -6.337,20.399 6.31,20.431 -3.937,12.637 0,0 Z" /></g><g
           transform="translate(205.0532,250.5815)"
           id="g48"><path
             id="path50"
             style="fill:#ffffff;fill-opacity:1;fill-rule:nonzero;stroke:none"
             d="m 0,0 -10.217,7.837 -10.214,-7.841 3.932,12.638 -10.249,7.79 12.647,-0.026 3.88,12.656 L -6.337,20.399 6.31,20.431 -3.937,12.637 0,0 Z" /></g></g></g></g></svg>