<?xml version="1.0" encoding="UTF-8" standalone="no"?>
<svg
   xmlns:dc="http://purl.org/dc/elements/1.1/"
   xmlns:cc="http://creativecommons.org/ns#"
   xmlns:rdf="http://www.w3.org/1999/02/22-rdf-syntax-ns#"
   xmlns:svg="http://www.w3.org/2000/svg"
   xmlns="http://www.w3.org/2000/svg"
   viewBox="0 0 800 533.33331"
   height="533.33331"
   width="800"
   xml:space="preserve"
   version="1.1"
   id="svg2"><metadata
     id="metadata8"><rdf:RDF><cc:Work
         rdf:about=""><dc:format>image/svg+xml</dc:format><dc:type
           rdf:resource="http://purl.org/dc/dcmitype/StillImage" /></cc:Work></rdf:RDF></metadata><defs
     id="defs6" /><g
     transform="matrix(1.3333333,0,0,-1.3333333,0,533.33333)"
     id="g10"><path
       id="path12"
       style="fill:#db332c;fill-opacity:1;fill-rule:nonzero;stroke:none"
       d="M 0,0 600,0 600,400 0,400 0,0 Z" /><g
       transform="translate(300,280)"
       id="g14"><path
         id="path16"
         style="fill:#f3e607;fill-opacity:1;fill-rule:nonzero;stroke:none"
         d="M 0,0 -27.812,-76.084 29.252,-92.565" /></g><g
       transform="translate(300,280)"
       id="g18"><path
         id="path20"
         style="fill:#f3e607;fill-opacity:1;fill-rule:nonzero;stroke:none"
         d="M 0,0 27.812,-76.084 -29.252,-92.565" /></g><g
       transform="translate(385.5957,224.7212)"
       id="g22"><path
         id="path24"
         style="fill:#f3e607;fill-opacity:1;fill-rule:nonzero;stroke:none"
         d="m 0,0 -90,0 0,-53.333" /></g><g
       transform="translate(385.5957,224.7212)"
       id="g26"><path
         id="path28"
         style="fill:#f3e607;fill-opacity:1;fill-rule:nonzero;stroke:none"
         d="m 0,0 -72.813,-47.023 -35.266,43.148" /></g><g
       transform="translate(352.9004,135.2783)"
       id="g30"><path
         id="path32"
         style="fill:#f3e607;fill-opacity:1;fill-rule:nonzero;stroke:none"
         d="M 0,0 -27.811,76.084 -84.875,59.604" /></g><g
       transform="translate(352.9004,135.2783)"
       id="g34"><path
         id="path36"
         style="fill:#f3e607;fill-opacity:1;fill-rule:nonzero;stroke:none"
         d="M 0,0 -72.812,47.023 -37.544,90.17" /></g><g
       transform="translate(214.4048,224.7212)"
       id="g38"><path
         id="path40"
         style="fill:#f3e607;fill-opacity:1;fill-rule:nonzero;stroke:none"
         d="m 0,0 90,0 0,-53.333" /></g><g
       transform="translate(214.4048,224.7212)"
       id="g42"><path
         id="path44"
         style="fill:#f3e607;fill-opacity:1;fill-rule:nonzero;stroke:none"
         d="m 0,0 72.812,-47.023 35.267,43.148" /></g><g
       transform="translate(247.0996,135.2783)"
       id="g46"><path
         id="path48"
         style="fill:#f3e607;fill-opacity:1;fill-rule:nonzero;stroke:none"
         d="M 0,0 27.812,76.084 84.875,59.604" /></g><g
       transform="translate(247.0996,135.2783)"
       id="g50"><path
         id="path52"
         style="fill:#f3e607;fill-opacity:1;fill-rule:nonzero;stroke:none"
         d="M 0,0 72.811,47.023 37.544,90.17" /></g></g></svg>